<svg width="22" height="28" viewBox="0 0 22 28" fill="none" xmlns="http://www.w3.org/2000/svg">
<path d="M21.0877 6.80269L14.5254 0.240352C14.3698 0.0846563 14.1571 0 13.9453 0H2.46094C1.10398 0 0 1.10398 0 2.46094V25.5391C0 26.896 1.10398 28 2.46094 28H18.8672C20.2241 28 21.3281 26.896 21.3281 25.5391V7.38281C21.3281 7.15772 21.2328 6.94766 21.0877 6.80269ZM14.7656 2.80071L18.5274 6.5625H15.5859C15.1336 6.5625 14.7656 6.19451 14.7656 5.74219V2.80071ZM18.8672 26.3594H2.46094C2.00862 26.3594 1.64062 25.9914 1.64062 25.5391V2.46094C1.64062 2.00862 2.00862 1.64062 2.46094 1.64062H13.125V5.74219C13.125 7.09915 14.229 8.20312 15.5859 8.20312H19.6875V25.5391C19.6875 25.9914 19.3195 26.3594 18.8672 26.3594Z" fill="#F7FBFC"/>
<path d="M15.5859 13.2344H7.38281C6.92978 13.2344 6.5625 13.6017 6.5625 14.0547C6.5625 14.5077 6.92978 14.875 7.38281 14.875H15.5859C16.039 14.875 16.4062 14.5077 16.4062 14.0547C16.4062 13.6017 16.039 13.2344 15.5859 13.2344Z" fill="#F7FBFC"/>
<path d="M15.5859 16.5156H7.38281C6.92978 16.5156 6.5625 16.8829 6.5625 17.3359C6.5625 17.789 6.92978 18.1562 7.38281 18.1562H15.5859C16.039 18.1562 16.4062 17.789 16.4062 17.3359C16.4062 16.8829 16.039 16.5156 15.5859 16.5156Z" fill="#F7FBFC"/>
<path d="M15.5859 19.7969H7.38281C6.92978 19.7969 6.5625 20.1642 6.5625 20.6172C6.5625 21.0702 6.92978 21.4375 7.38281 21.4375H15.5859C16.039 21.4375 16.4062 21.0702 16.4062 20.6172C16.4062 20.1642 16.039 19.7969 15.5859 19.7969Z" fill="#F7FBFC"/>
<path d="M4.10156 14.875C4.55461 14.875 4.92188 14.5077 4.92188 14.0547C4.92188 13.6016 4.55461 13.2344 4.10156 13.2344C3.64852 13.2344 3.28125 13.6016 3.28125 14.0547C3.28125 14.5077 3.64852 14.875 4.10156 14.875Z" fill="#F7FBFC"/>
<path d="M4.10156 18.1562C4.55461 18.1562 4.92188 17.789 4.92188 17.3359C4.92188 16.8829 4.55461 16.5156 4.10156 16.5156C3.64852 16.5156 3.28125 16.8829 3.28125 17.3359C3.28125 17.789 3.64852 18.1562 4.10156 18.1562Z" fill="#F7FBFC"/>
<path d="M4.10156 21.4375C4.55461 21.4375 4.92188 21.0702 4.92188 20.6172C4.92188 20.1641 4.55461 19.7969 4.10156 19.7969C3.64852 19.7969 3.28125 20.1641 3.28125 20.6172C3.28125 21.0702 3.64852 21.4375 4.10156 21.4375Z" fill="#F7FBFC"/>
</svg>
