<svg width="31" height="31" viewBox="0 0 31 31" fill="none" xmlns="http://www.w3.org/2000/svg">
<g clip-path="url(#clip0)">
<path d="M4.52068 5.15733C3.45063 5.15733 2.58318 6.02479 2.58318 7.09484V12.2615H3.87483V7.09484C3.87483 6.73816 4.164 6.44898 4.52068 6.44898H20.0207V5.15733H4.52068Z" fill="#F7FBFC"/>
<path d="M4.52068 24.5324C4.164 24.5324 3.87483 24.2432 3.87483 23.8866V17.4282H2.58318V23.8866C2.58318 24.9566 3.45063 25.8241 4.52068 25.8241H10.9791V24.5324H4.52068Z" fill="#F7FBFC"/>
<path d="M20.4774 26.198L4.79261 10.5132C4.54043 10.2611 4.13161 10.2611 3.87937 10.5132L0.189089 14.2036C-0.0630295 14.4557 -0.0630295 14.8646 0.189089 15.1168L15.8739 30.8015C15.995 30.9227 16.1592 30.9907 16.3305 30.9907C16.5018 30.9907 16.666 30.9226 16.7871 30.8015L20.4773 27.1112C20.7295 26.859 20.7295 26.4502 20.4774 26.198ZM16.3305 29.4317L1.55891 14.6602L4.33602 11.883L19.1076 26.6547L16.3305 29.4317Z" fill="#F7FBFC"/>
<path d="M28.4166 24.5324H18.7291V25.8241H25.8333V29.0532C25.8333 29.4099 26.1224 29.6991 26.4791 29.6991H28.4166C29.8434 29.6991 31 28.5425 31 27.1157C31 25.689 29.8434 24.5324 28.4166 24.5324ZM28.4166 28.4074H27.125V25.8241H28.4166C29.13 25.8241 29.7083 26.4023 29.7083 27.1157C29.7083 27.8291 29.13 28.4074 28.4166 28.4074Z" fill="#F7FBFC"/>
<path d="M28.4166 5.15733H25.1875V6.44898H28.4166C29.13 6.44898 29.7083 7.02727 29.7083 7.74064V27.1157H30.9999V7.74064C31 6.3139 29.8434 5.15733 28.4166 5.15733Z" fill="#F7FBFC"/>
<path d="M11.8144 18.2631L9.87669 20.2008L10.79 21.1141L12.7277 19.1765L11.8144 18.2631Z" fill="#F7FBFC"/>
<path d="M9.23108 15.6798L7.29342 17.6174L8.20674 18.5308L10.1444 16.5931L9.23108 15.6798Z" fill="#F7FBFC"/>
<path d="M14.3963 20.8465L12.4586 22.7842L13.372 23.6975L15.3096 21.7598L14.3963 20.8465Z" fill="#F7FBFC"/>
<path d="M16.9808 23.4311L15.0432 25.3688L15.9565 26.2821L17.8941 24.3445L16.9808 23.4311Z" fill="#F7FBFC"/>
<path d="M6.64597 13.0964L4.70831 15.0341L5.62163 15.9474L7.5593 14.0098L6.64597 13.0964Z" fill="#F7FBFC"/>
<path d="M27.8574 1.44247L26.9648 0.549948C26.2096 -0.170987 25.021 -0.170987 24.2658 0.549948L14.4453 10.3705C14.1932 10.6227 14.1932 11.0315 14.4453 11.2837L17.1236 13.962C17.2444 14.0836 17.4088 14.1517 17.5802 14.1513C17.7514 14.1512 17.9156 14.0831 18.0367 13.962L27.8574 4.14142C27.8577 4.14112 27.858 4.14082 27.8583 4.14051C28.6031 3.39524 28.6026 2.18726 27.8574 1.44247ZM26.9448 3.22758L17.5802 12.5922L15.8151 10.8271L25.1797 1.46312C25.4236 1.23007 25.8077 1.23007 26.0516 1.46312L26.9448 2.35504C26.9448 2.35516 26.945 2.35522 26.9451 2.35534C27.1858 2.59626 27.1857 2.98679 26.9448 3.22758Z" fill="#F7FBFC"/>
<path d="M17.3728 12.8931L14.5854 13.8238L15.5161 11.0319L14.289 10.623L12.9495 14.6408C12.9276 14.7067 12.9164 14.7756 12.9164 14.845C12.9165 15.2017 13.2057 15.4908 13.5624 15.4907C13.6307 15.4909 13.6987 15.4804 13.7639 15.4597L17.7816 14.1202L17.3728 12.8931Z" fill="#F7FBFC"/>
<path d="M23.3931 2.335L22.4798 3.24832L25.1582 5.92669L26.0715 5.01337L23.3931 2.335Z" fill="#F7FBFC"/>
<path d="M23.25 14.199H13.5624V15.4907H23.25V14.199Z" fill="#F7FBFC"/>
<path d="M25.8333 14.199H24.5416V15.4907H25.8333V14.199Z" fill="#F7FBFC"/>
<path d="M28.4166 14.199H27.125V15.4907H28.4166V14.199Z" fill="#F7FBFC"/>
</g>
<defs>
<clipPath id="clip0">
<rect width="31" height="31" fill="white"/>
</clipPath>
</defs>
</svg>
