<svg width="29" height="29" viewBox="0 0 29 29" fill="none" xmlns="http://www.w3.org/2000/svg">
<path d="M26.4552 19.4809C25.3712 18.8554 24.1231 18.6521 22.907 18.8971L18.5049 14.4968L22.9104 10.0932C23.2392 10.1585 23.5694 10.1902 23.8969 10.1902C25.6845 10.1901 27.3893 9.24442 28.315 7.64176C28.9958 6.46307 29.1766 5.08995 28.8242 3.77528C28.4718 2.46066 27.6284 1.36194 26.4492 0.681471C24.0153 -0.723024 20.8918 0.113534 19.4866 2.54652C18.8607 3.63007 18.6574 4.87763 18.9024 6.09324L14.5 10.4937L14.1426 10.1364C13.9213 9.91527 13.5627 9.91538 13.3417 10.1366C13.1206 10.3578 13.1206 10.7164 13.3419 10.9375L13.6989 11.2944L11.2963 13.6961L7.07143 9.47295L9.47197 7.06929L9.73685 7.33406C9.95807 7.55517 10.3166 7.55505 10.5378 7.33389C10.7589 7.11268 10.7588 6.75406 10.5376 6.53296L10.0943 6.0899C10.5158 3.96733 9.53891 1.78235 7.64181 0.687475C6.17212 -0.160637 4.38279 -0.222539 2.85551 0.5221C2.34885 0.769086 2.0851 1.08845 2.07174 1.47136C2.0586 1.84719 2.28605 2.17285 2.74768 2.43926L4.26816 3.31671C4.52704 3.46611 4.52704 3.53849 4.52704 3.66977V4.32068C4.52704 4.72658 4.48672 4.7963 4.13501 4.99928L3.5711 5.3247C3.46094 5.38836 3.3944 5.42676 3.13523 5.27719L1.61481 4.39974C1.15317 4.13327 0.757406 4.09935 0.43855 4.29865C0.11369 4.50168 -0.0310691 4.88963 0.00823568 5.45174C0.126886 7.14638 1.07519 8.66454 2.54492 9.5127C3.62886 10.1383 4.87705 10.3415 6.093 10.0966L10.4951 14.4969L6.08972 18.9004C3.96641 18.479 1.78046 19.4555 0.685139 21.3518C0.00432789 22.5305 -0.176508 23.9036 0.175876 25.2183C0.528316 26.5329 1.37173 27.6317 2.55081 28.3121C3.35152 28.7742 4.22642 28.9938 5.09068 28.9937C6.85344 28.9936 8.57051 28.0798 9.51343 26.4472C10.1393 25.3636 10.3426 24.1161 10.0976 22.9005L14.4999 18.5L18.9056 22.9038C18.4842 25.0264 19.4611 27.2114 21.3581 28.3062C22.1454 28.7606 23.0242 28.9893 23.9056 28.9893C24.6694 28.9892 25.4353 28.8173 26.1444 28.4716C26.6511 28.2246 26.9148 27.9052 26.9282 27.5223C26.9413 27.1465 26.7139 26.8209 26.2522 26.5544L24.7318 25.677C24.4729 25.5275 24.4729 25.4552 24.4729 25.3239V24.673C24.4729 24.2671 24.5132 24.1974 24.8649 23.9944L25.4288 23.6689C25.539 23.6053 25.6055 23.5669 25.8646 23.7165L27.3851 24.5939C27.8466 24.8604 28.2425 24.8944 28.5614 24.695C28.8862 24.492 29.031 24.104 28.9917 23.5419C28.8733 21.8473 27.925 20.3292 26.4552 19.4809ZM3.11111 8.53167C1.98616 7.88246 1.25398 6.72835 1.14309 5.43531L2.56911 6.25828C2.9233 6.46273 3.47136 6.69012 4.13728 6.3058L4.70125 5.98037C5.39996 5.57713 5.65975 5.12733 5.6598 4.32073V3.66977C5.6598 2.90095 5.18877 2.54018 4.8344 2.33567L3.40884 1.51299C4.58481 0.962552 5.95062 1.0193 7.07568 1.66851C8.5841 2.53905 9.34426 4.29519 8.95937 5.97963L5.98206 8.96074C5.00142 9.18734 3.98742 9.03737 3.11111 8.53167ZM20.4675 3.11305C21.5605 1.22075 23.9898 0.57007 25.8831 1.66262C26.8001 2.19182 27.456 3.04633 27.7301 4.06865C28.0041 5.09092 27.8635 6.15871 27.3341 7.07524C26.614 8.32201 25.2882 9.05764 23.8979 9.05753C23.6067 9.05753 23.3126 9.02502 23.0208 8.95842L20.0382 5.98218C19.8117 5.00211 19.9617 3.98874 20.4675 3.11305ZM8.53268 25.8807C7.43967 27.773 5.01025 28.4236 3.11705 27.331C2.20002 26.8018 1.54407 25.9473 1.27001 24.925C0.995953 23.9027 1.13663 22.8349 1.666 21.9184C2.38612 20.6716 3.71189 19.9361 5.10223 19.9361C5.39339 19.9361 5.6875 19.9686 5.97934 20.0352L8.96197 23.0114C9.1884 23.9916 9.03849 25.0049 8.53268 25.8807ZM9.47407 21.9223L7.06939 19.5227L19.5261 7.07133L21.9307 9.47085L9.47407 21.9223ZM15.3011 17.6992L17.7038 15.2976L21.9286 19.5207L19.5281 21.9244L15.3011 17.6992ZM26.431 22.7354C26.0768 22.5309 25.5288 22.3036 24.8629 22.6879L24.2989 23.0133C23.6002 23.4165 23.3404 23.8664 23.3404 24.6728V25.3239C23.3405 26.0927 23.8115 26.4535 24.1658 26.658L25.5913 27.4806C24.4154 28.0312 23.0495 27.9744 21.9245 27.3251C20.416 26.4545 19.6559 24.6984 20.0408 23.0139L23.018 20.0329C23.9988 19.8064 25.0128 19.9563 25.889 20.462C27.014 21.1112 27.7462 22.2652 27.857 23.5583L26.431 22.7354Z" fill="#F7FBFC"/>
<path d="M21.9187 6.56475L23.6177 7.54528C23.7053 7.59585 23.803 7.62111 23.9008 7.62111C23.9985 7.62111 24.0963 7.59585 24.1838 7.54528L25.8828 6.56475C26.0582 6.4636 26.1661 6.27659 26.1661 6.07423V4.11318C26.1661 3.91083 26.0582 3.72382 25.8828 3.62267L24.1838 2.64214C24.0088 2.54105 23.7929 2.54099 23.6177 2.64214L21.9187 3.62267C21.7433 3.72382 21.6354 3.91083 21.6354 4.11318V6.07423C21.6354 6.27659 21.7433 6.46354 21.9187 6.56475ZM22.7681 4.4402L23.9008 3.78651L25.0334 4.4402V5.74711L23.9008 6.40079L22.7681 5.74711V4.4402Z" fill="#F7FBFC"/>
<path d="M7.08144 22.428L5.38239 21.4475C5.20716 21.3464 4.99143 21.3464 4.8162 21.4475L3.11715 22.428C2.94186 22.5291 2.83392 22.7162 2.83392 22.9185V24.8795C2.83392 25.0819 2.94192 25.2689 3.11715 25.37L4.8162 26.3505C4.90382 26.4011 5.00151 26.4264 5.09932 26.4264C5.19713 26.4264 5.29483 26.4011 5.38244 26.3505L7.0815 25.37C7.25678 25.2689 7.36473 25.0819 7.36473 24.8795V22.9185C7.36467 22.7162 7.25667 22.5291 7.08144 22.428ZM6.23197 24.5524L5.09927 25.2061L3.96656 24.5524V23.2455L5.09927 22.5918L6.23197 23.2455V24.5524Z" fill="#F7FBFC"/>
<path d="M11.9398 9.30118C12.2526 9.30118 12.5062 9.04762 12.5062 8.73482C12.5062 8.42203 12.2526 8.16847 11.9398 8.16847H11.9394C11.6266 8.16847 11.3733 8.42203 11.3733 8.73482C11.3733 9.04762 11.627 9.30118 11.9398 9.30118Z" fill="#F7FBFC"/>
</svg>
