<svg width="34" height="34" viewBox="0 0 34 34" fill="none" xmlns="http://www.w3.org/2000/svg">
<path d="M31.0117 0H18.9258C17.278 0 15.9375 1.34054 15.9375 2.98828V11.0234C15.9375 12.6712 17.278 14.0117 18.9258 14.0117H19.9883V17C19.9883 17.4029 20.231 17.7661 20.6032 17.9203C20.9754 18.0745 21.4039 17.9892 21.6887 17.7044L25.3813 14.0117H31.0117C32.6595 14.0117 34 12.6712 34 11.0234V2.98828C34 1.34054 32.6595 0 31.0117 0V0ZM32.0078 11.0234C32.0078 11.5727 31.561 12.0195 31.0117 12.0195H24.9688C24.7046 12.0195 24.4512 12.1245 24.2644 12.3113L21.9805 14.5952V13.0156C21.9805 12.4655 21.5345 12.0195 20.9844 12.0195H18.9258C18.3765 12.0195 17.9297 11.5727 17.9297 11.0234V2.98828C17.9297 2.43904 18.3765 1.99219 18.9258 1.99219H31.0117C31.561 1.99219 32.0078 2.43904 32.0078 2.98828V11.0234Z" fill="#F7FBFC"/>
<path d="M26.2566 5.33858L23.9727 7.62256L23.1828 6.83272C22.7939 6.44372 22.1632 6.44372 21.7742 6.83272C21.3852 7.22173 21.3852 7.85239 21.7742 8.2414L23.2683 9.73554C23.6572 10.1245 24.288 10.1245 24.677 9.73554L27.6653 6.74726C28.0543 6.35825 28.0543 5.72759 27.6653 5.33858C27.2763 4.94958 26.6456 4.94958 26.2566 5.33858Z" fill="#F7FBFC"/>
<path d="M1.99232 29.0169C1.99232 29.0177 1.99219 29.0186 1.99219 29.0195V33.0039C1.99219 33.554 2.43817 34 2.98828 34H14.9414C15.3702 34 15.7508 33.7257 15.8864 33.3189L16.9879 30.0143C18.6106 29.985 19.9219 28.6569 19.9219 27.0273C19.9219 26.0696 19.4685 25.2162 18.7655 24.669L19.8723 21.2948C19.9718 20.9913 19.9198 20.6586 19.7325 20.4C19.5452 20.1413 19.2452 19.9883 18.9258 19.9883H17.8295C17.3668 17.7177 15.3545 16.0039 12.9493 16.0039H4.98047C2.23424 16.0039 0 18.2381 0 20.9844V25.0352C0 26.6611 0.783395 28.1074 1.99232 29.0169ZM3.98438 29.9154C4.30631 29.981 4.63941 30.0156 4.98047 30.0156H6.91382L6.25341 32.0078H3.98438V29.9154ZM8.35225 32.0078C8.36905 31.9571 11.6423 22.0846 11.6763 21.9805H17.5508L16.8756 24.0391H14.9414C14.3913 24.0391 13.9453 24.485 13.9453 25.0352V29.0195C13.9453 29.5518 14.3631 29.9852 14.8884 30.013L14.2234 32.0078H8.35225ZM16.9336 28.0234C16.6327 28.0234 16.3885 28.0234 15.9375 28.0234V26.0312H16.9336C17.4828 26.0312 17.9297 26.4781 17.9297 27.0273C17.9297 27.5766 17.4828 28.0234 16.9336 28.0234ZM1.99219 20.9844C1.99219 19.3366 3.33273 17.9961 4.98047 17.9961H12.9492C14.2478 17.9961 15.355 18.829 15.7662 19.9883H10.957C10.5276 19.9883 10.1466 20.2634 10.0115 20.6709L8.89505 24.0391H5.97656V20.9844C5.97656 20.4343 5.53058 19.9883 4.98047 19.9883C4.43036 19.9883 3.98438 20.4343 3.98438 20.9844V25.0352C3.98438 25.5853 4.43036 26.0312 4.98047 26.0312H8.23464L7.57423 28.0234H4.98047C3.33273 28.0234 1.99219 26.6829 1.99219 25.0352V20.9844Z" fill="#F7FBFC"/>
<path d="M13.9453 11.0234C13.9453 8.27721 11.7111 6.04297 8.96484 6.04297C6.21861 6.04297 3.98438 8.27721 3.98438 11.0234C3.98438 13.7697 6.21861 16.0039 8.96484 16.0039C11.7111 16.0039 13.9453 13.7697 13.9453 11.0234ZM8.96484 14.0117C7.31711 14.0117 5.97656 12.6712 5.97656 11.0234C5.97656 9.3757 7.31711 8.03516 8.96484 8.03516C10.6126 8.03516 11.9531 9.3757 11.9531 11.0234C11.9531 12.6712 10.6126 14.0117 8.96484 14.0117Z" fill="#F7FBFC"/>
</svg>
